<svg width="120" height="120" viewBox="0 0 120 120" xmlns="http://www.w3.org/2000/svg">
<style>
path { fill: #2F2F3D; }
@media (prefers-color-scheme: dark) { path { fill: #E0E1E4; } }
</style>
<path d="M104.288 68.9325L91.5599 56.2046L81.6604 66.1041L85.196 69.6396L91.5599 63.2756L100.752 72.468L91.5599 81.6604C88.0452 85.1751 82.3467 85.1751 78.832 81.6604L59.7401 62.5685L56.2046 66.1041L68.9325 78.832L59.7401 88.0244L53.3762 81.6604L49.8406 85.196L59.7401 95.0955L72.468 82.3675L81.6604 91.5599L59.7401 113.48L37.8198 91.5599C34.3051 88.0452 34.3051 82.3467 37.8198 78.832L50.5477 66.1041L34.2843 49.8406L24.3848 59.7401L27.9203 63.2756L34.2843 56.9117L43.4767 66.1041L27.9203 81.6604L6 59.7401L27.9203 37.8198C31.435 34.3051 37.1335 34.3051 40.6482 37.8198L59.033 56.2046L62.5685 52.669L37.8198 27.9203L47.0122 18.7279L75.2965 47.0122L68.9325 53.3762L72.468 56.9117L82.3675 47.0122L76.0036 40.6482L85.196 31.4558L113.48 59.7401L104.288 68.9325ZM72.468 37.1127L50.5477 15.1924L59.7401 6L81.6604 27.9203L72.468 37.1127Z" />
</svg>
