<svg width="112" height="112" viewBox="0 0 112 112" fill="none" xmlns="http://www.w3.org/2000/svg">
<path d="M100.288 64.9325L87.5599 52.2046L77.6604 62.1041L81.196 65.6396L87.5599 59.2756L96.7523 68.468L87.5599 77.6604C84.0452 81.1751 78.3467 81.1751 74.832 77.6604L55.7401 58.5685L52.2046 62.1041L64.9325 74.832L55.7401 84.0244L49.3762 77.6604L45.8406 81.196L55.7401 91.0955L68.468 78.3675L77.6604 87.5599L55.7401 109.48L33.8198 87.5599C30.3051 84.0452 30.3051 78.3467 33.8198 74.832L46.5477 62.1041L30.2843 45.8406L20.3848 55.7401L23.9203 59.2756L30.2843 52.9117L39.4767 62.1041L23.9203 77.6604L2 55.7401L23.9203 33.8198C27.435 30.3051 33.1335 30.3051 36.6482 33.8198L55.033 52.2046L58.5685 48.669L33.8198 23.9203L43.0122 14.7279L71.2965 43.0122L64.9325 49.3762L68.468 52.9117L78.3675 43.0122L72.0036 36.6482L81.196 27.4558L109.48 55.7401L100.288 64.9325ZM68.468 33.1127L46.5477 11.1924L55.7401 2L77.6604 23.9203L68.468 33.1127Z" fill="#353346"/>
</svg>
